<svg xmlns="http://www.w3.org/2000/svg" viewBox="0 0 396.58 114.63"><defs><style>.cls-1{fill:#00aeef;}.cls-1,.cls-4{stroke:#0099cd;}.cls-1,.cls-4,.cls-5,.cls-6{stroke-miterlimit:10;}.cls-2{fill:#0099cd;}.cls-3{fill:#315caa;}.cls-4,.cls-6{fill:none;}.cls-5{fill:#079bd3;stroke-width:2px;}.cls-5,.cls-6{stroke:#fff;}.cls-6{stroke-width:3px;}</style></defs><g id="Layer_2" data-name="Layer 2"><g id="Layer_1-2" data-name="Layer 1"><path class="cls-1" d="M33,94.67H18.84m16.8,7.51H9.8"/><path class="cls-2" d="M32.28,3H65.54q12.84,0,20.2,6.87a22.85,22.85,0,0,1,7.35,17.45v5.58q0,7.76-2.54,12.6t-9,7.52v.65a19.75,19.75,0,0,1,11.82,9,30.26,30.26,0,0,1,3.84,15.59v9.7c0,8.14,13.46,13.33,8.55,18.18s12.93,8.57,4.36,8.57H53.65q-10.78,0-16.08-7.27T32.28,88.69Z"/><path class="cls-3" d="M171,98.09q0,7.41-4.36,11.93c-2.9,3,17.91,4.61,12.36,4.61l-38.2-.09q-8.31,0-12.67-4.52T123.8,98.09V73.2q0-7.41,4.36-11.93t12.67-4.53H154q8.33,0,12.67,4.53T171,73.2ZM152.65,72.64a7.56,7.56,0,0,0-1.42-5,5.13,5.13,0,0,0-7.63,0,7.62,7.62,0,0,0-1.42,5V98.09a8.9,8.9,0,0,0,1.42,5.26,4.68,4.68,0,0,0,7.63,0,8.83,8.83,0,0,0,1.42-5.26Z"/><path class="cls-3" d="M192.52,94.89h11.82a3.28,3.28,0,0,1,3.28,3.28h0c0,4.94,10.15,7.47,7.25,10.48s3,6-2.51,6H177.42q-8.32,0-12.67-4.53t-4.36-11.93V73.29q0-7.41,4.36-11.94t12.67-4.52h13.17q8.32,0,12.67,4.52t4.36,11.94h0a3.28,3.28,0,0,1-3.28,3.28H192.52a3.28,3.28,0,0,1-3.28-3.28v-.57a7.62,7.62,0,0,0-1.42-5,5.15,5.15,0,0,0-7.63,0,7.56,7.56,0,0,0-1.42,5V98.17a8.81,8.81,0,0,0,1.42,5.26,4.67,4.67,0,0,0,7.63,0,8.88,8.88,0,0,0,1.42-5.26h0A3.28,3.28,0,0,1,192.52,94.89Z"/><path class="cls-3" d="M224.63,91v18a5.67,5.67,0,0,1-5.67,5.67h-7.11a5.67,5.67,0,0,1-5.66-5.67V42.08a5.67,5.67,0,0,1,5.66-5.67H219a5.67,5.67,0,0,1,5.67,5.67V74.7h.45l11.2-15.57a5.65,5.65,0,0,1,4.6-2.36h4.68A5.67,5.67,0,0,1,250,66l-11.16,13.6a1.59,1.59,0,0,0-.36,1h0a1.58,1.58,0,0,0,.28.91l16.67,24.19a5.67,5.67,0,0,1-4.67,8.88h-6.88a5.68,5.68,0,0,1-4.71-2.52L225,91Z"/><path class="cls-3" d="M297.38,47.37V36.47H321.9v10.9ZM319.64,60.7v48.46c0,3-3,5.45-6.78,5.45h-4c-3.74,0-6.78-2.44-6.78-5.45V60.7c0-3,3-5.45,6.78-5.45h4C316.6,55.25,319.64,57.69,319.64,60.7Z"/><path class="cls-3" d="M321.9,97.61V36.47h12.7a5.68,5.68,0,0,1,5.68,5.68l-.49,51.51a6.75,6.75,0,0,0,1.69,5c1.14,1.13,3,1.7,5.66,1.7h4.56c1.53,0,3.49,3.43,4.56,4.53h0c3.48,3.59,20.94,9.72,15.94,9.76H338.58c-5.69,0-11.41,0-14.12-3.06S321.9,102.93,321.9,97.61Z"/><path class="cls-3" d="M370.93,88.62a3.29,3.29,0,0,0-3.19,3.28v6.28a8.9,8.9,0,0,0,1.41,5.26,4.68,4.68,0,0,0,7.63,0,8.83,8.83,0,0,0,1.42-5.26h0a3.28,3.28,0,0,1,3.28-3.28H393.3a3.28,3.28,0,0,1,3.28,3.28h0q0,7.41-4.36,11.93t-12.66,4.52H366.38q-8.31,0-12.67-4.52c-2.9-3-4.35-2-4.35-7V73.29q0-7.41,4.35-11.93t12.67-4.53h13.18q8.31,0,12.66,4.53t4.36,11.93Q396.58,87.79,370.93,88.62Zm8.27-15.75a7.56,7.56,0,0,0-1.42-5,5.15,5.15,0,0,0-7.63,0,7.62,7.62,0,0,0-1.41,5V78a3.29,3.29,0,0,0,4.05,3.19Q379.2,79.69,379.2,72.87Z"/><path class="cls-3" d="M97,97.58V42.18a5.74,5.74,0,0,1,5.74-5.74h6.9a5.74,5.74,0,0,1,5.74,5.74l-.07,51.1a6.75,6.75,0,0,0,1.7,5q1.69,1.69,5.65,1.69h.63c3.39,0,6.11,6.1,5.78,9.47h0c-.29,2.94,19.12,5.18,16.17,5.18H113.72q-8.55,0-12.62-4.52T97,97.58Z"/><path class="cls-2" d="M279.54,88.11v21.61a4.89,4.89,0,0,1-4.9,4.89h-8.59a4.89,4.89,0,0,1-4.89-4.89V52.34q0-8,3.5-11.93t10.92-4h22.27a5.61,5.61,0,0,1,5.61,5.61h0a5.31,5.31,0,0,1-5.31,5.31h-13A5.21,5.21,0,0,0,281,49.06a7.62,7.62,0,0,0-1.41,5V68.55a4.89,4.89,0,0,0,4.89,4.89h11.08a4.89,4.89,0,0,1,4.9,4.89h0a4.89,4.89,0,0,1-4.9,4.89H284.43A4.89,4.89,0,0,0,279.54,88.11Z"/><line class="cls-1" x1="32.28" y1="3.45" x2="10.74" y2="3.45"/><line class="cls-1" x1="32.28" y1="11.02" x2="18.15" y2="11.02"/><line class="cls-1" x1="32.28" y1="18.54" x2="6.45" y2="18.54"/><circle class="cls-4" cx="7.74" cy="3.45" r="2.95"/><circle class="cls-4" cx="15.15" cy="10.99" r="2.95"/><circle class="cls-4" cx="3.45" cy="18.54" r="2.95"/><line class="cls-1" x1="32.28" y1="87.08" x2="10.74" y2="87.08"/><circle class="cls-4" cx="7.74" cy="87.08" r="2.95"/><circle class="cls-4" cx="15.84" cy="94.65" r="2.95"/><circle class="cls-4" cx="6.8" cy="102.18" r="2.95"/><line class="cls-1" x1="32.28" y1="45.26" x2="10.74" y2="45.26"/><line class="cls-1" x1="32.28" y1="52.84" x2="18.15" y2="52.84"/><line class="cls-1" x1="32.28" y1="60.36" x2="6.45" y2="60.36"/><circle class="cls-4" cx="7.74" cy="45.26" r="2.95"/><circle class="cls-4" cx="15.15" cy="52.81" r="2.95"/><circle class="cls-4" cx="3.45" cy="60.36" r="2.95"/><path class="cls-5" d="M71.66,86.85a9.4,9.4,0,1,1-9.4-9.4A9.4,9.4,0,0,1,71.66,86.85Z"/><path class="cls-5" d="M71.66,30.73a9.4,9.4,0,1,1-9.4-9.41A9.4,9.4,0,0,1,71.66,30.73Z"/><line class="cls-6" x1="62.26" y1="40.75" x2="62.26" y2="76.82"/></g></g></svg>