<?xml version="1.0" encoding="UTF-8"?><svg xmlns="http://www.w3.org/2000/svg" viewBox="0 0 97.21 117.57"><defs><style>.d,.e,.f,.g{stroke-miterlimit:10;}.d,.f{fill:none;}.d,.g{stroke:#0099cd;}.e{fill:#fff;stroke-width:2px;}.e,.f{stroke:#fff;}.f{stroke-width:3px;}.h{fill:#0099cd;}.g{fill:#00aeef;}</style></defs><g id="a"/><g id="b"><g id="c"><g><path class="g" d="M39.85,106.37h-14.13m37.57,7.76H16.68"/><path class="h" d="M32.28,2.95h33.25c8.56,0,15.3,2.29,20.2,6.87,4.9,4.58,7.35,10.4,7.35,17.45v5.58c0,5.17-.85,9.37-2.54,12.61-1.7,3.23-4.7,5.74-9,7.52v.65c5.31,1.62,9.25,4.61,11.82,8.97,2.56,4.36,3.85,9.56,3.85,15.6v9.7c0,14.2-8.51,26.75-29.08,26.75h-14.48c-7.19,0-12.55-2.42-16.08-7.27-3.53-4.85-5.29-11.07-5.29-18.67V2.95Z"/><line class="g" x1="32.28" y1="3.45" x2="10.74" y2="3.45"/><line class="g" x1="32.28" y1="11.02" x2="18.15" y2="11.02"/><line class="g" x1="32.28" y1="18.54" x2="6.45" y2="18.54"/><circle class="d" cx="7.74" cy="3.45" r="2.95"/><circle class="d" cx="15.15" cy="10.99" r="2.95"/><circle class="d" cx="3.45" cy="18.54" r="2.95"/><line class="g" x1="39.17" y1="98.78" x2="17.62" y2="98.78"/><circle class="d" cx="14.62" cy="98.78" r="2.95"/><circle class="d" cx="22.72" cy="106.34" r="2.95"/><circle class="d" cx="13.68" cy="114.13" r="2.95"/><line class="g" x1="32.28" y1="55.15" x2="10.74" y2="55.15"/><line class="g" x1="32.28" y1="62.99" x2="18.1" y2="62.99"/><line class="g" x1="32.28" y1="70.25" x2="6.45" y2="70.25"/><circle class="d" cx="7.74" cy="55.15" r="2.95"/><circle class="d" cx="15.15" cy="62.7" r="2.95"/><circle class="d" cx="3.45" cy="70.25" r="2.95"/><path class="e" d="M71.66,86.85c0,5.19-4.2,9.4-9.4,9.4s-9.4-4.21-9.4-9.4,4.2-9.41,9.4-9.41,9.4,4.21,9.4,9.41Z"/><path class="e" d="M71.66,30.73c0,5.19-4.2,9.4-9.4,9.4s-9.4-4.21-9.4-9.4,4.2-9.41,9.4-9.41,9.4,4.21,9.4,9.41Z"/><line class="f" x1="62.26" y1="40.75" x2="62.26" y2="76.82"/></g></g></g></svg>